# xmcd CD database file
#
# Track frame offsets:
#	150
#	11982
#	25755
#	39885
#	48625
#	59032
#	70940
#	83077
#	96012
#	110500
#	122822
#	137200
#	153242
#	166740
#
# Disc length: 2671 seconds
#
# Revision: 3
# Processed by: cddbd v1.5.2PL0 Copyright (c) Steve Scherf et al.
# Submitted via: CDex 1.51
#
DISCID=b80a6d0e
DTITLE=ARTISTI VARI - White Christmas
DYEAR=1996
DGENRE=Musical
TTITLE0=Bing Crosby - Jingle bells
TTITLE1=Bing Crosby - White Christmas
TTITLE2=Benny Goodman - Santa Claus came in the spring
TTITLE3=Golden Gate Quartet - When the ring them golden bells
TTITLE4=Bing Crosby - God rest ye merry, gentlemen
TTITLE5=The Red Onion Babies - Santa Claus blues
TTITLE6=Bing Crosby - Silent Night
TTITLE7=Glenn Miller - And the angel sing
TTITLE8=Luis Armstrong - Snowball
TTITLE9=Bing Crosby - Santa Claus is coming to town
TTITLE10=Bing Crosby - Adeste Fideles
TTITLE11=Glenn Miller - The angels came through
TTITLE12=Bing Crosby - I'll be home for Christmas
TTITLE13=Glen Miller Benny Goodman - Jingle bells (Medley)
EXTD=YEAR: 1996
EXTT0=
EXTT1=
EXTT2=
EXTT3=
EXTT4=
EXTT5=
EXTT6=
EXTT7=
EXTT8=
EXTT9=
EXTT10=
EXTT11=
EXTT12=
EXTT13=
PLAYORDER=
